<?xml version="1.0" encoding="UTF-8"?>
<svg version="1.2" baseProfile="tiny-ps"
     xmlns="http://www.w3.org/2000/svg"
     viewBox="0 0 600 600">
  <title>Maia_Farms</title>
  <desc>BIMI logo for Maia_Farms</desc>
  <!-- Solid White Background (change fill if needed) -->
  <rect width="100%" height="100%" fill="#FFFFFF"/>

  <!-- Paths (with direct fill, remove classes) -->
  <g transform="translate(42.05, 42.80)">
      <path fill="#262626" d="M236.23.62C112.49,8.76,9.43,114.1.8,237.19c-6.53,94.27,25.72,172.27,133.19,165.59,31.43-1.95,84.18-20.52,79.62-59.92-3.27-28.33-43.81-28.49-62.04-39.89-43.96-27.35-28.97-87.6-4.07-123.09,46.41-66.27,140.99-76.69,201.25-22.47,34.51,31.1,65.13,103.56,23.12,139.86-20.2,17.42-64.47,14.65-69.7,45.1-6.67,38.26,48.53,58.45,78.32,60.41,82.56,5.54,126.52-38.1,134.17-118.21C530.13,121.27,399.38-10.13,236.23.62Z"/>
      <path fill="#262626" d="M408.68,440.72c-43.64,3.75-89.07-5.7-122.78-34.52-9.61-8.14-14.81-19.21-29.79-18.07-12.38.81-19.37,12.21-28.01,19.54-32.56,27.19-77.82,37.12-119.68,32.73-8.79,1.14-13.66,10.26-9.27,18.07,3.11,5.53,25.24,18.89,31.91,22.47,82.22,46.73,184.49,44.29,264.42-6.02,4.89-3.09,16.28-10.1,19.7-13.84,7.01-7.33,2.94-18.07-6.36-20.35h-.15Z"/>
  </g>
</svg>
